<svg id="Layer_1" data-name="Layer 1" xmlns="http://www.w3.org/2000/svg" width="20.4cm" height="4.66cm" viewBox="0 0 578.22 132.18"><defs><style>.cls-1{fill:#2b2959;}.cls-2{fill:#f48176;}.cls-3{fill:#f9c66d;}.cls-4{fill:#d1c0ae;}.cls-5{fill:#f8f1de;}</style></defs><polygon class="cls-1" points="365.24 57.36 361.24 61.36 357.24 61.36 357.24 65.36 353.24 65.36 353.24 69.36 349.24 69.36 349.24 73.36 353.24 73.36 365.24 73.36 365.24 69.36 377.24 69.36 377.24 57.36 365.24 57.36"/><polygon class="cls-2" points="299.34 103.36 299.34 73.36 289.34 63.36 279.34 73.36 279.34 123.36 292.18 123.36 299.34 123.36 339.34 123.36 339.34 103.36 299.34 103.36"/><polygon class="cls-3" points="266.58 73.36 266.58 69.36 262.58 69.36 262.58 65.36 258.58 65.36 258.58 69.36 254.58 69.36 254.58 73.36 250.58 73.36 250.58 123.36 270.58 123.36 270.58 73.36 266.58 73.36"/><polygon class="cls-4" points="534.15 71.31 510.82 71.31 499.15 71.31 499.15 47.9 499.15 9.31 534.15 9.31 534.15 71.31"/><polygon class="cls-3" points="430.15 123.31 412.15 123.31 403.15 123.31 403.15 80.27 403.15 9.31 430.15 9.31 430.15 123.31"/><polygon class="cls-4" points="465.15 123.31 441.82 123.31 430.15 123.31 430.15 80.27 430.15 9.31 465.15 9.31 465.15 123.31"/><polygon class="cls-3" points="478.15 123.31 448.15 123.31 433.15 123.31 433.15 102.92 433.15 69.31 478.15 69.31 478.15 123.31"/><polygon class="cls-4" points="569.15 123.31 508.48 123.31 478.15 123.31 478.15 102.92 478.15 69.31 569.15 69.31 569.15 123.31"/><polygon class="cls-3" points="499.15 69.31 481.15 69.31 472.15 69.31 472.15 46.66 472.15 9.31 499.15 9.31 499.15 69.31"/><rect class="cls-1" x="422.15" y="59.32" width="5" height="5"/><rect class="cls-1" x="414.15" y="59.32" width="5" height="5"/><rect class="cls-1" x="406.15" y="59.32" width="5" height="5"/><rect class="cls-1" x="422.15" y="70.32" width="5" height="5"/><rect class="cls-1" x="414.15" y="70.32" width="5" height="5"/><rect class="cls-1" x="406.15" y="70.32" width="5" height="5"/><rect class="cls-1" x="422.15" y="81.32" width="5" height="5"/><rect class="cls-1" x="414.15" y="81.32" width="5" height="5"/><rect class="cls-1" x="406.15" y="81.32" width="5" height="5"/><rect class="cls-1" x="422.15" y="92.32" width="5" height="5"/><rect class="cls-1" x="414.15" y="92.32" width="5" height="5"/><rect class="cls-1" x="406.15" y="92.32" width="5" height="5"/><rect class="cls-1" x="422.15" y="103.32" width="5" height="5"/><rect class="cls-1" x="414.15" y="103.32" width="5" height="5"/><rect class="cls-1" x="406.15" y="103.32" width="5" height="5"/><rect class="cls-1" x="406.15" y="41.32" width="5" height="8"/><rect class="cls-1" x="414.15" y="41.32" width="5" height="8"/><rect class="cls-1" x="422.15" y="41.32" width="5" height="8"/><rect class="cls-1" x="457.15" y="59.32" width="5" height="5"/><rect class="cls-1" x="449.15" y="59.32" width="5" height="5"/><rect class="cls-1" x="441.15" y="59.32" width="5" height="5"/><rect class="cls-1" x="433.15" y="59.32" width="5" height="5"/><rect class="cls-1" x="433.15" y="41.32" width="5" height="8"/><rect class="cls-1" x="441.15" y="41.32" width="5" height="8"/><rect class="cls-1" x="449.15" y="41.32" width="5" height="8"/><rect class="cls-1" x="457.15" y="41.32" width="5" height="8"/><rect class="cls-1" x="461.15" y="110.32" width="5" height="7"/><polygon class="cls-1" points="474.15 102.31 474.15 95.31 469.15 95.31 469.15 102.31 466.15 102.31 466.15 95.31 461.15 95.31 461.15 102.31 458.15 102.31 458.15 95.31 453.15 95.31 453.15 102.31 450.15 102.31 450.15 95.31 445.15 95.31 445.15 102.31 442.15 102.31 442.15 95.31 437.15 95.31 437.15 102.31 433.15 102.31 433.15 105.31 478.15 105.31 478.15 102.31 474.15 102.31"/><rect class="cls-1" x="469.15" y="110.32" width="5" height="7"/><rect class="cls-1" x="453.15" y="110.32" width="5" height="7"/><rect class="cls-1" x="445.15" y="110.32" width="5" height="7"/><rect class="cls-1" x="437.15" y="110.32" width="5" height="7"/><rect class="cls-1" x="478.15" y="69.32" width="91" height="3"/><polygon class="cls-1" points="566.15 102.31 566.15 95.31 561.15 95.31 561.15 102.31 558.15 102.31 558.15 95.31 553.15 95.31 553.15 102.31 550.15 102.31 550.15 95.31 545.15 95.31 545.15 102.31 542.15 102.31 542.15 95.31 537.15 95.31 537.15 102.31 534.15 102.31 534.15 95.31 529.15 95.31 529.15 102.31 526.15 102.31 526.15 95.31 521.15 95.31 521.15 102.31 518.15 102.31 518.15 95.31 513.15 95.31 513.15 102.31 510.15 102.31 510.15 95.31 505.15 95.31 505.15 102.31 502.15 102.31 502.15 95.31 497.15 95.31 497.15 102.31 494.15 102.31 494.15 95.31 489.15 95.31 489.15 102.31 486.15 102.31 486.15 95.31 481.15 95.31 481.15 102.31 478.15 102.31 478.15 105.31 569.15 105.31 569.15 102.31 566.15 102.31"/><rect class="cls-1" x="505.15" y="110.32" width="5" height="7"/><rect class="cls-1" x="497.15" y="110.32" width="5" height="7"/><rect class="cls-1" x="489.15" y="110.32" width="5" height="7"/><rect class="cls-1" x="481.15" y="110.32" width="5" height="7"/><rect class="cls-1" x="537.15" y="110.32" width="5" height="7"/><rect class="cls-1" x="529.15" y="110.32" width="5" height="7"/><rect class="cls-1" x="521.15" y="110.32" width="5" height="7"/><rect class="cls-1" x="513.15" y="110.32" width="5" height="7"/><rect class="cls-1" x="561.15" y="110.32" width="5" height="7"/><rect class="cls-1" x="553.15" y="110.32" width="5" height="7"/><rect class="cls-1" x="545.15" y="110.32" width="5" height="7"/><rect class="cls-1" x="491.15" y="59.32" width="5" height="5"/><rect class="cls-1" x="483.15" y="59.32" width="5" height="5"/><rect class="cls-1" x="475.15" y="59.32" width="5" height="5"/><rect class="cls-1" x="475.15" y="41.32" width="5" height="8"/><rect class="cls-1" x="483.15" y="41.32" width="5" height="8"/><rect class="cls-1" x="491.15" y="41.32" width="5" height="8"/><rect class="cls-1" x="526.15" y="59.32" width="5" height="5"/><rect class="cls-1" x="518.15" y="59.32" width="5" height="5"/><rect class="cls-1" x="510.15" y="59.32" width="5" height="5"/><rect class="cls-1" x="502.15" y="59.32" width="5" height="5"/><rect class="cls-1" x="502.15" y="41.32" width="5" height="8"/><rect class="cls-1" x="510.15" y="41.32" width="5" height="8"/><rect class="cls-1" x="518.15" y="41.32" width="5" height="8"/><rect class="cls-1" x="526.15" y="41.32" width="5" height="8"/><circle class="cls-1" cx="515.65" cy="24.82" r="8.5"/><rect class="cls-5" x="514.15" y="20.32" width="2" height="2"/><rect class="cls-5" x="514.15" y="22.32" width="2" height="2"/><rect class="cls-5" x="514.15" y="24.32" width="2" height="2"/><rect class="cls-5" x="516.15" y="24.32" width="2" height="2"/><polygon class="cls-2" points="131.58 93.36 121.58 103.36 121.58 123.36 141.58 123.36 141.58 103.36 131.58 93.36"/><polygon class="cls-5" points="111.58 103.36 111.58 113.36 101.58 113.36 101.58 123.36 111.58 123.36 115.28 123.36 121.58 123.36 121.58 117.17 121.58 113.36 121.58 103.36 111.58 103.36"/><polygon class="cls-1" points="254.58 65.36 253.82 65.36 250.58 65.36 250.58 69.36 250.01 69.36 246.58 69.36 246.58 73.36 250.01 73.36 250.58 73.36 254.58 73.36 254.58 69.36 258.58 69.36 258.58 65.36 254.58 65.36"/><polygon class="cls-5" points="213.58 93.36 213.58 113.36 213.58 123.36 223.58 123.36 223.58 113.36 223.58 93.36 213.58 93.36"/><polygon class="cls-2" points="233.58 83.36 223.58 93.36 223.58 123.36 243.58 123.36 243.58 93.36 233.58 83.36"/><polyline class="cls-1" points="223.58 93.36 213.58 93.36 223.58 83.36 233.58 83.36 223.58 93.36"/><rect class="cls-1" x="232.58" y="119.36" width="4" height="4"/><rect class="cls-1" x="227.58" y="96.36" width="4" height="4"/><rect class="cls-1" x="235.58" y="96.36" width="4" height="4"/><rect class="cls-1" x="227.58" y="104.36" width="4" height="4"/><rect class="cls-1" x="235.58" y="104.36" width="4" height="4"/><rect class="cls-5" x="141.58" y="113.36" width="10" height="10"/><polygon class="cls-3" points="161.58 103.36 151.58 113.36 151.58 123.36 161.58 123.36 171.58 123.36 171.58 113.36 161.58 103.36"/><rect class="cls-5" x="171.58" y="107.36" width="10" height="16"/><polygon class="cls-4" points="191.58 97.36 181.58 107.36 181.58 123.36 191.58 123.36 201.58 123.36 201.58 107.36 191.58 97.36"/><polyline class="cls-1" points="121.58 103.36 111.58 103.36 121.58 93.36 131.58 93.36 121.58 103.36"/><polygon class="cls-1" points="101.58 113.36 111.58 113.36 111.58 103.36 101.58 113.36"/><rect class="cls-1" x="130.58" y="119.36" width="4" height="4"/><polyline class="cls-1" points="151.58 113.36 141.58 113.36 151.58 103.36 161.58 103.36 151.58 113.36"/><rect class="cls-1" x="159.58" y="119.36" width="4" height="4"/><polyline class="cls-1" points="181.58 107.36 171.58 107.36 181.58 97.36 191.58 97.36 181.58 107.36"/><rect class="cls-1" x="189.58" y="119.36" width="4" height="4"/><polyline class="cls-1" points="69.58 89.36 51.58 89.36 61.58 79.36 79.58 79.36 69.58 89.36"/><rect class="cls-5" x="51.58" y="89.36" width="18" height="34"/><polygon class="cls-2" points="79.58 79.36 69.58 89.36 69.58 123.36 79.58 123.36 89.58 123.36 89.58 89.36 79.58 79.36"/><rect class="cls-1" x="77.58" y="119.36" width="4" height="4"/><rect class="cls-1" x="73.58" y="112.36" width="4" height="4"/><rect class="cls-1" x="81.58" y="112.36" width="4" height="4"/><rect class="cls-1" x="73.58" y="104.36" width="4" height="4"/><rect class="cls-1" x="81.58" y="104.36" width="4" height="4"/><rect class="cls-1" x="73.58" y="96.36" width="4" height="4"/><rect class="cls-1" x="81.58" y="96.36" width="4" height="4"/><rect class="cls-1" x="58.58" y="108.36" width="4" height="8"/><rect class="cls-1" x="58.58" y="96.36" width="4" height="8"/><rect class="cls-5" x="7.58" y="65.36" width="20" height="58"/><rect class="cls-3" x="27.58" y="65.36" width="24" height="58"/><rect class="cls-1" x="37.58" y="119.36" width="4" height="4"/><rect class="cls-1" x="33.58" y="104.36" width="4" height="4"/><rect class="cls-1" x="41.58" y="104.36" width="4" height="4"/><rect class="cls-1" x="33.58" y="96.36" width="4" height="4"/><rect class="cls-1" x="41.58" y="96.36" width="4" height="4"/><rect class="cls-1" x="33.58" y="88.36" width="4" height="4"/><rect class="cls-1" x="41.58" y="88.36" width="4" height="4"/><rect class="cls-1" x="33.58" y="80.36" width="4" height="4"/><rect class="cls-1" x="41.58" y="80.36" width="4" height="4"/><rect class="cls-1" x="33.58" y="72.36" width="4" height="4"/><rect class="cls-1" x="41.58" y="72.36" width="4" height="4"/><rect class="cls-1" x="15.58" y="108.36" width="4" height="8"/><rect class="cls-1" x="15.58" y="96.36" width="4" height="8"/><rect class="cls-1" x="15.58" y="84.36" width="4" height="8"/><rect class="cls-1" x="15.58" y="72.36" width="4" height="8"/><rect class="cls-1" x="258.58" y="119.36" width="4" height="4"/><rect class="cls-1" x="262.58" y="111.36" width="4" height="4"/><rect class="cls-1" x="254.58" y="111.36" width="4" height="4"/><rect class="cls-1" x="262.58" y="107.36" width="4" height="4"/><rect class="cls-1" x="254.58" y="107.36" width="4" height="4"/><rect class="cls-1" x="262.58" y="99.36" width="4" height="4"/><rect class="cls-1" x="254.58" y="99.36" width="4" height="4"/><rect class="cls-1" x="262.58" y="95.36" width="4" height="4"/><rect class="cls-1" x="254.58" y="95.36" width="4" height="4"/><rect class="cls-1" x="262.58" y="87.36" width="4" height="4"/><rect class="cls-1" x="254.58" y="87.36" width="4" height="4"/><rect class="cls-1" x="243.58" y="73.36" width="7" height="50"/><circle class="cls-1" cx="260.58" cy="78.36" r="5"/><rect class="cls-1" x="349.24" y="73.36" width="12" height="50"/><polygon class="cls-1" points="339.34 90.36 339.34 103.36 319.34 103.36 313.74 103.36 299.34 103.36 299.34 90.36 339.34 90.36"/><rect class="cls-1" x="287.34" y="115.36" width="4" height="8"/><rect class="cls-1" x="311.34" y="111.36" width="4" height="4"/><rect class="cls-1" x="303.34" y="111.36" width="4" height="4"/><rect class="cls-1" x="311.34" y="107.36" width="4" height="4"/><rect class="cls-1" x="303.34" y="107.36" width="4" height="4"/><rect class="cls-1" x="327.34" y="111.36" width="4" height="4"/><rect class="cls-1" x="319.34" y="111.36" width="4" height="4"/><rect class="cls-1" x="327.34" y="107.36" width="4" height="4"/><rect class="cls-1" x="319.34" y="107.36" width="4" height="4"/><circle class="cls-1" cx="289.34" cy="79.36" r="5"/><polygon class="cls-3" points="389.24 69.36 389.24 65.36 385.24 65.36 385.24 61.36 381.24 61.36 377.24 57.36 373.24 61.36 369.24 61.36 369.24 65.36 365.24 65.36 365.24 69.36 361.24 69.36 361.24 73.36 361.24 123.36 393.24 123.36 393.24 73.36 393.24 69.36 389.24 69.36"/><rect class="cls-1" x="375.24" y="119.36" width="4" height="4"/><rect class="cls-1" x="367.24" y="77.36" width="4" height="4"/><rect class="cls-1" x="375.24" y="77.36" width="4" height="4"/><rect class="cls-1" x="383.24" y="77.36" width="4" height="4"/><rect class="cls-1" x="367.24" y="85.36" width="4" height="4"/><rect class="cls-1" x="375.24" y="85.36" width="4" height="4"/><rect class="cls-1" x="383.24" y="85.36" width="4" height="4"/><rect class="cls-1" x="367.24" y="93.36" width="4" height="4"/><rect class="cls-1" x="375.24" y="93.36" width="4" height="4"/><rect class="cls-1" x="383.24" y="93.36" width="4" height="4"/></svg>